<svg width="28" height="28" viewBox="0 0 28 28" fill="none" xmlns="http://www.w3.org/2000/svg">
<path d="M19.937 11.518C19.8092 11.3657 19.626 11.2703 19.4279 11.253C19.2298 11.2356 19.0329 11.2977 18.8805 11.4255L14 15.521L9.1195 11.4255C9.04429 11.3605 8.95689 11.311 8.8624 11.2801C8.7679 11.2491 8.6682 11.2373 8.56908 11.2452C8.46996 11.2531 8.37341 11.2807 8.28504 11.3263C8.19667 11.3719 8.11825 11.4346 8.05434 11.5107C7.99043 11.5869 7.94231 11.675 7.91277 11.77C7.88323 11.8649 7.87286 11.9648 7.88227 12.0638C7.89169 12.1628 7.92069 12.2589 7.9676 12.3466C8.0145 12.4343 8.07837 12.5117 8.1555 12.5745L13.5185 17.0745C13.6535 17.188 13.8242 17.2502 14.0005 17.2502C14.1768 17.2502 14.3475 17.188 14.4825 17.0745L19.8455 12.5745C19.9978 12.4467 20.0932 12.2635 20.1105 12.0654C20.1279 11.8673 20.0658 11.6704 19.938 11.518H19.937Z" fill="#A2A0A2"/>
</svg>
