<svg width="28" height="28" viewBox="0 0 28 28" fill="none" xmlns="http://www.w3.org/2000/svg">
<g filter="url(#filter0_i_2319_170)">
<path d="M0 6C0 2.68629 2.68629 0 6 0H22C25.3137 0 28 2.68629 28 6V22C28 25.3137 25.3137 28 22 28H6C2.68629 28 0 25.3137 0 22V6Z" fill="#9EE7E3"/>
<path d="M9.33333 20H6.66667C6.26667 20 6 19.7333 6 19.4V14.6C6 14.2667 6.26667 14 6.66667 14H9.33333C9.73333 14 10 14.2667 10 14.6V19.4C10 19.7333 9.73333 20 9.33333 20Z" fill="#1E1F21" fill-opacity="0.75"/>
<path d="M9.33333 12H6.66667C6.26667 12 6 11.7333 6 11.3333V8.66667C6 8.33333 6.26667 8 6.66667 8H9.33333C9.73333 8 10 8.33333 10 8.66667V11.3333C10 11.7333 9.73333 12 9.33333 12ZM15.3333 8H12.6667C12.2667 8 12 8.33333 12 8.66667V16.6667C12 17 12.2667 17.3333 12.6667 17.3333H15.3333C15.7333 17.3333 16 17 16 16.6667V8.66667C16 8.33333 15.7333 8 15.3333 8ZM21.3333 8H18.6667C18.3333 8 18 8.33333 18 8.66667V11.3333C18 11.7333 18.3333 12 18.6667 12H21.3333C21.6667 12 22 11.7333 22 11.3333V8.66667C22 8.33333 21.6667 8 21.3333 8Z" fill="#F5F4F3"/>
</g>
<defs>
<filter id="filter0_i_2319_170" x="0" y="0" width="28" height="28" filterUnits="userSpaceOnUse" color-interpolation-filters="sRGB">
<feFlood flood-opacity="0" result="BackgroundImageFix"/>
<feBlend mode="normal" in="SourceGraphic" in2="BackgroundImageFix" result="shape"/>
<feColorMatrix in="SourceAlpha" type="matrix" values="0 0 0 0 0 0 0 0 0 0 0 0 0 0 0 0 0 0 127 0" result="hardAlpha"/>
<feOffset dy="-2"/>
<feComposite in2="hardAlpha" operator="arithmetic" k2="-1" k3="1"/>
<feColorMatrix type="matrix" values="0 0 0 0 0 0 0 0 0 0 0 0 0 0 0 0 0 0 0.05 0"/>
<feBlend mode="normal" in2="shape" result="effect1_innerShadow_2319_170"/>
</filter>
</defs>
</svg>
