<svg width="29" height="28" viewBox="0 0 29 28" fill="none" xmlns="http://www.w3.org/2000/svg">
<path d="M13.1838 8.155C13.055 8.00602 12.8727 7.9137 12.6763 7.89798C12.48 7.88227 12.2853 7.94443 12.1344 8.07103C11.9836 8.19763 11.8885 8.37851 11.8699 8.57459C11.8512 8.77068 11.9105 8.96623 12.0348 9.119L16.1298 14L12.0348 18.8805C11.907 19.0329 11.8449 19.2298 11.8622 19.4279C11.8796 19.626 11.9749 19.8092 12.1273 19.937C12.2797 20.0648 12.4766 20.1269 12.6747 20.1096C12.8728 20.0922 13.056 19.9969 13.1838 19.8445L17.6838 14.4815C17.7972 14.3464 17.8594 14.1757 17.8594 13.9993C17.8594 13.8229 17.7972 13.6521 17.6838 13.517L13.1838 8.154V8.155Z" fill="#A2A0A2"/>
</svg>
