<svg width="28" height="28" viewBox="0 0 28 28" fill="none" xmlns="http://www.w3.org/2000/svg">
<g clip-path="url(#clip0_2319_154)">
<path d="M6.30407 11.6505C6.24034 11.8425 6.23176 12.0484 6.27932 12.245C6.32687 12.4416 6.42865 12.6209 6.57307 12.7625L9.50657 15.6525L8.81357 19.7345C8.74357 20.1465 8.90957 20.553 9.24757 20.7965C9.40974 20.9144 9.60187 20.9843 9.80192 20.998C10.002 21.0117 10.2018 20.9687 10.3786 20.874L13.9991 18.95L17.6191 20.874C17.7959 20.9688 17.9958 21.0118 18.196 20.9981C18.3961 20.9844 18.5883 20.9145 18.7506 20.7965C18.9156 20.6783 19.0439 20.516 19.1207 20.3281C19.1974 20.1402 19.2196 19.9344 19.1846 19.7345L18.4916 15.6525L21.4251 12.7625C21.7201 12.4715 21.8236 12.0455 21.6941 11.6505C21.6326 11.4595 21.5187 11.2895 21.3655 11.1599C21.2122 11.0304 21.0257 10.9464 20.8271 10.9175L16.7771 10.3225L14.9656 6.6125C14.8786 6.42969 14.7417 6.27519 14.5707 6.16682C14.3997 6.05845 14.2015 6.00062 13.9991 6C13.5851 6 13.2141 6.238 13.0316 6.6115L11.2201 10.3225L7.17007 10.9175C6.9715 10.9463 6.78499 11.0302 6.63173 11.1597C6.47847 11.2891 6.3646 11.459 6.30307 11.65L6.30407 11.6505ZM7.31657 11.9065L11.8881 11.2355L13.9311 7.0505C13.9371 7.039 13.9531 7.0065 13.9996 7.0065C14.0461 7.0065 14.0616 7.0385 14.0681 7.051L16.1111 11.2355L20.6826 11.9065C20.6941 11.908 20.7291 11.9135 20.7451 11.9615C20.7509 11.9767 20.752 11.9934 20.7482 12.0092C20.7445 12.0251 20.7361 12.0395 20.7241 12.0505L17.4196 15.306L18.1996 19.902C18.2033 19.9177 18.2022 19.9342 18.1964 19.9493C18.1906 19.9644 18.1804 19.9773 18.1671 19.9865C18.1301 20.0135 18.1026 19.998 18.0911 19.9915L14.0006 17.8185L9.91007 19.992C9.89907 19.9985 9.87007 20.012 9.83407 19.9865C9.8206 19.9774 9.81027 19.9643 9.80445 19.9491C9.79864 19.9339 9.79763 19.9173 9.80157 19.9015L10.5816 15.3065L7.27657 12.0505C7.26465 12.0394 7.25633 12.025 7.25268 12.0091C7.24903 11.9933 7.25021 11.9767 7.25607 11.9615C7.27207 11.9135 7.30707 11.9085 7.31857 11.9065H7.31657Z" fill="#A2A0A2"/>
</g>
<defs>
<clipPath id="clip0_2319_154">
<rect width="16" height="16" fill="white" transform="translate(6 6)"/>
</clipPath>
</defs>
</svg>
